PathFileType	4	(X/Y/Z)	c:/Users/goper/Files/vsCode/490R/osim_files/A03/A03_Slow_03.trc
DataRate	CameraRate	NumFrames	NumMarkers	Units                	OrigDataRate	OrigDataStartFrame	OrigNumFrames
250.00	250.00	5	36	mm	250.0	2597	2967
                Frame#	Time	LPSIS			LASIS			LTH1			LTH2			LTH3			LTH4			LLFE			LMFE			LSH1			LSH2			LSH3			LSH4			LLMAL			LMMAL			LCAL			LMTP5			LTOE			LMTP1			RPSIS			RASIS			RTH1			RTH2			RTH3			RTH4			RLFE			RMFE			RSH1			RSH2			RSH3			RSH4			RLMAL			RMMAL			RCAL			RMTP1			RTOE			RMTP5		
		X1	Y1	Z1	X2	Y2	Z2	X3	Y3	Z3	X4	Y4	Z4	X5	Y5	Z5	X6	Y6	Z6	X7	Y7	Z7	X8	Y8	Z8	X9	Y9	Z9	X10	Y10	Z10	X11	Y11	Z11	X12	Y12	Z12	X13	Y13	Z13	X14	Y14	Z14	X15	Y15	Z15	X16	Y16	Z16	X17	Y17	Z17	X18	Y18	Z18	X19	Y19	Z19	X20	Y20	Z20	X21	Y21	Z21	X22	Y22	Z22	X23	Y23	Z23	X24	Y24	Z24	X25	Y25	Z25	X26	Y26	Z26	X27	Y27	Z27	X28	Y28	Z28	X29	Y29	Z29	X30	Y30	Z30	X31	Y31	Z31	X32	Y32	Z32	X33	Y33	Z33	X34	Y34	Z34	X35	Y35	Z35	X36	Y36	Z36

2597	10.38400	0.00000	0.00000	0.00000	0.00000	0.00000	0.00000	-4107.53271	639.43103	449.83896	-4114.09814	594.72797	444.96310	-4167.63428	644.26550	433.68903	0.00000	0.00000	0.00000	0.00000	0.00000	0.00000	-4132.88184	551.03986	278.59036	0.00000	0.00000	0.00000	0.00000	0.00000	0.00000	0.00000	0.00000	0.00000	-4052.41553	471.01126	425.07358	-4014.54663	103.24857	365.65726	0.00000	0.00000	0.00000	-3948.51904	90.43206	309.25726	0.00000	0.00000	0.00000	0.00000	0.00000	0.00000	0.00000	0.00000	0.00000	0.00000	0.00000	0.00000	-4194.67334	1011.47827	132.01106	0.00000	0.00000	0.00000	0.00000	0.00000	0.00000	0.00000	0.00000	0.00000	0.00000	0.00000	0.00000	0.00000	0.00000	0.00000	0.00000	0.00000	0.00000	0.00000	0.00000	0.00000	0.00000	0.00000	0.00000	0.00000	0.00000	0.00000	-4242.42969	484.16556	56.87931	0.00000	0.00000	0.00000	-4222.28223	552.86737	53.45037	0.00000	0.00000	0.00000	0.00000	0.00000	0.00000	0.00000	0.00000	0.00000	-4213.16016	66.25050	72.80235
2598	10.38800	0.00000	0.00000	0.00000	0.00000	0.00000	0.00000	-4109.01172	639.28143	449.79004	-4115.39941	594.56696	444.86523	-4169.19775	643.87732	433.73862	0.00000	0.00000	0.00000	0.00000	0.00000	0.00000	-4134.07568	550.81622	278.47443	0.00000	0.00000	0.00000	0.00000	0.00000	0.00000	0.00000	0.00000	0.00000	-4053.24194	470.92661	424.95142	-4014.55151	103.23389	365.65811	0.00000	0.00000	0.00000	-3947.70020	90.92343	308.12732	0.00000	0.00000	0.00000	0.00000	0.00000	0.00000	0.00000	0.00000	0.00000	0.00000	0.00000	0.00000	-4198.33691	1011.31909	132.16040	0.00000	0.00000	0.00000	0.00000	0.00000	0.00000	0.00000	0.00000	0.00000	0.00000	0.00000	0.00000	0.00000	0.00000	0.00000	0.00000	0.00000	0.00000	0.00000	0.00000	0.00000	0.00000	0.00000	0.00000	0.00000	0.00000	0.00000	-4248.26025	483.95609	57.31950	0.00000	0.00000	0.00000	-4227.14014	551.80743	53.66459	0.00000	0.00000	0.00000	0.00000	0.00000	0.00000	0.00000	0.00000	0.00000	-4228.11768	64.77787	73.27523
2599	10.39200	0.00000	0.00000	0.00000	0.00000	0.00000	0.00000	-4110.54199	639.22058	449.76816	-4116.60010	594.35089	444.79587	-4170.74414	643.44836	433.77878	0.00000	0.00000	0.00000	0.00000	0.00000	0.00000	-4135.19385	550.57025	278.39359	0.00000	0.00000	0.00000	0.00000	0.00000	0.00000	0.00000	0.00000	0.00000	-4054.13940	470.91635	424.89124	-4014.57690	103.22356	365.61343	0.00000	0.00000	0.00000	-3948.69604	90.49135	309.16702	0.00000	0.00000	0.00000	0.00000	0.00000	0.00000	0.00000	0.00000	0.00000	0.00000	0.00000	0.00000	-4201.94678	1011.14679	132.32014	0.00000	0.00000	0.00000	0.00000	0.00000	0.00000	0.00000	0.00000	0.00000	0.00000	0.00000	0.00000	0.00000	0.00000	0.00000	0.00000	0.00000	0.00000	0.00000	0.00000	0.00000	0.00000	0.00000	0.00000	0.00000	0.00000	0.00000	-4254.00391	483.71164	57.79550	0.00000	0.00000	0.00000	-4231.91650	550.72009	53.94257	0.00000	0.00000	0.00000	0.00000	0.00000	0.00000	0.00000	0.00000	0.00000	-4243.34766	63.58973	73.61727
2600	10.39600	0.00000	0.00000	0.00000	0.00000	0.00000	0.00000	-4112.04199	639.12231	449.72775	-4117.84668	594.17120	444.72302	-4172.23730	642.98962	433.79004	0.00000	0.00000	0.00000	0.00000	0.00000	0.00000	-4136.39941	550.41602	278.35513	0.00000	0.00000	0.00000	0.00000	0.00000	0.00000	0.00000	0.00000	0.00000	-4055.14648	470.97229	424.82800	-4014.71338	103.30172	365.60123	0.00000	0.00000	0.00000	-3948.79834	90.46622	309.21649	0.00000	0.00000	0.00000	0.00000	0.00000	0.00000	0.00000	0.00000	0.00000	0.00000	0.00000	0.00000	-4205.56836	1010.90686	132.47545	0.00000	0.00000	0.00000	0.00000	0.00000	0.00000	0.00000	0.00000	0.00000	0.00000	0.00000	0.00000	0.00000	0.00000	0.00000	0.00000	0.00000	0.00000	0.00000	0.00000	0.00000	0.00000	0.00000	0.00000	0.00000	0.00000	0.00000	-4259.68408	483.46097	58.33286	0.00000	0.00000	0.00000	0.00000	0.00000	0.00000	0.00000	0.00000	0.00000	0.00000	0.00000	0.00000	0.00000	0.00000	0.00000	-4258.53516	62.51036	74.03933
2601	10.40000	0.00000	0.00000	0.00000	0.00000	0.00000	0.00000	-4111.51514	636.65247	447.44223	-4119.11182	594.03503	444.67682	-4173.77832	642.56946	433.81619	0.00000	0.00000	0.00000	0.00000	0.00000	0.00000	-4137.51270	550.20105	278.30048	0.00000	0.00000	0.00000	0.00000	0.00000	0.00000	0.00000	0.00000	0.00000	-4056.06030	470.95779	424.73239	-4014.75049	103.32397	365.63724	0.00000	0.00000	0.00000	-3948.74756	90.58683	309.19769	0.00000	0.00000	0.00000	0.00000	0.00000	0.00000	0.00000	0.00000	0.00000	0.00000	0.00000	0.00000	-4209.18115	1010.62982	132.59976	0.00000	0.00000	0.00000	0.00000	0.00000	0.00000	0.00000	0.00000	0.00000	0.00000	0.00000	0.00000	0.00000	0.00000	0.00000	0.00000	0.00000	0.00000	0.00000	0.00000	0.00000	0.00000	0.00000	0.00000	0.00000	0.00000	0.00000	-4265.26123	483.16330	58.85943	0.00000	0.00000	0.00000	0.00000	0.00000	0.00000	0.00000	0.00000	0.00000	0.00000	0.00000	0.00000	0.00000	0.00000	0.00000	0.00000	0.00000	0.00000
